<mxfile host="app.diagrams.net" modified="2025-04-29T21:59:47.525Z" agent="Mozilla/5.0 (Windows NT 10.0; Win64; x64) AppleWebKit/537.36 (KHTML, like Gecko) Chrome/135.0.0.0 Safari/537.36" version="24.2.8" etag="O4Uum6ovpOMlt8AecCSF" type="github">
  <diagram name="PÃ¡gina-1" id="ONtcqx3pocbJ-KWC6Pje">
    <mxGraphModel>
      <root>
        <mxCell id="0" />
        <mxCell id="1" parent="0" />
      </root>
    </mxGraphModel>
  </diagram>
</mxfile>
